<svg xmlns="http://www.w3.org/2000/svg" width="258" height="64" viewBox="0 0 258 64" fill="none"><path d="M210.067 39.0464C210.389 39.7229 210.582 40.4961 210.582 41.4304C210.582 43.4923 209.777 45.0709 208.262 46.1985C206.748 47.326 204.685 47.9381 202.14 47.9381C199.079 47.9381 196.307 47.0683 193.891 45.2964C193.697 45.1675 193.633 44.9742 193.762 44.6198L194.889 42.6868C195.083 42.4291 195.276 42.3647 195.566 42.558C197.628 44.0722 199.884 44.8776 202.204 44.8776C203.654 44.8776 204.782 44.6198 205.717 44.0077C206.651 43.3956 207.102 42.6224 207.102 41.5593C207.102 40.8183 206.844 40.2384 206.232 39.7551C205.717 39.3041 205.104 38.9497 204.557 38.7564C203.944 38.6276 203.171 38.4343 202.172 38.241C201.366 38.0477 200.722 37.9188 200.174 37.7899C199.659 37.6611 198.917 37.4033 198.112 37.0489C197.242 36.7268 196.597 36.308 196.05 35.8569C195.534 35.4703 195.051 34.8582 194.664 34.1172C194.277 33.3763 194.052 32.6031 194.052 31.6688C194.052 29.6713 194.857 28.1572 196.436 27.094C198.015 26.0309 199.949 25.5798 202.204 25.5798C204.718 25.5798 207.134 26.2564 209.455 27.5128C209.777 27.6417 209.777 27.835 209.648 28.125L208.52 29.9935C208.391 30.3157 208.198 30.3157 207.908 30.1224C205.974 29.1237 204.041 28.6082 202.075 28.6082C200.625 28.6082 199.497 28.8659 198.692 29.4136C197.822 29.9291 197.435 30.6701 197.435 31.6688C197.435 32.6675 197.886 33.4729 198.756 33.9239C199.691 34.375 201.012 34.7938 202.816 35.1804C203.687 35.3737 204.395 35.5025 204.943 35.6314C205.459 35.7603 206.136 36.018 206.941 36.3724C207.747 36.6946 208.391 37.1134 208.81 37.5C209.358 37.8544 209.745 38.3698 210.067 39.0464ZM190.346 45.1675V47.3582C190.346 47.6804 190.217 47.8093 189.959 47.8737C188.96 47.9381 188.219 47.9381 187.704 47.9381C185.512 47.9381 183.772 47.326 182.451 46.0696C181.13 44.8776 180.453 43.009 180.453 40.5606V21.1984C180.453 20.8762 180.582 20.6829 180.969 20.6829H183.16C183.418 20.6829 183.547 20.8118 183.611 21.134L183.869 26.192H189.25C189.573 26.192 189.701 26.3208 189.701 26.643V28.6726C189.701 28.9948 189.573 29.1881 189.25 29.1881H183.869V40.3995C183.869 41.7848 184.191 42.8479 184.932 43.6533C185.674 44.4588 186.608 44.7809 187.929 44.7809C188.251 44.7809 188.928 44.7809 189.927 44.7165C190.217 44.6843 190.346 44.8776 190.346 45.1675ZM177.457 45.1675V47.2938C177.457 47.616 177.328 47.7448 177.07 47.8093C176.393 47.8737 175.62 47.9381 174.75 47.9381C172.752 47.9381 171.237 47.2616 170.11 45.9407C168.982 44.6198 168.434 42.7513 168.434 40.2384V18.2022C168.434 17.8801 168.563 17.7512 168.95 17.7512H171.399C171.721 17.7512 171.85 17.8801 171.85 18.2022V40.3028C171.85 41.8814 172.107 43.0412 172.655 43.75C173.171 44.491 173.976 44.8131 175.104 44.8131C175.716 44.8131 176.297 44.7487 176.973 44.6843C177.263 44.6843 177.457 44.8776 177.457 45.1675ZM162.795 26.4819V45.7474C162.795 46.0696 162.666 46.2629 162.473 46.3595C160.088 47.4227 157.414 47.9381 154.642 47.9381C151.774 47.9381 149.519 47.1972 147.875 45.7474C146.2 44.2977 145.426 42.0425 145.426 38.9819V26.4819C145.426 26.1597 145.62 25.9664 145.942 25.9664H148.391C148.713 25.9664 148.842 26.1597 148.842 26.4819V38.8853C148.842 42.9446 150.775 44.942 154.61 44.942C156.286 44.942 157.865 44.6843 159.379 44.1366V26.4819C159.379 26.1597 159.572 25.9664 159.895 25.9664H162.344C162.601 25.9664 162.795 26.1597 162.795 26.4819ZM140.593 39.0464C140.915 39.7229 141.108 40.4961 141.108 41.4304C141.108 43.4923 140.303 45.0709 138.788 46.1985C137.274 47.326 135.211 47.9381 132.666 47.9381C129.605 47.9381 126.833 47.0683 124.417 45.2964C124.223 45.1675 124.159 44.9742 124.288 44.6198L125.416 42.6868C125.609 42.4291 125.802 42.3647 126.092 42.558C128.155 44.0722 130.41 44.8776 132.73 44.8776C134.18 44.8776 135.308 44.6198 136.243 44.0077C137.177 43.3956 137.628 42.6224 137.628 41.5593C137.628 40.8183 137.37 40.2384 136.758 39.7551C136.243 39.3041 135.63 38.9497 135.083 38.7564C134.47 38.6276 133.697 38.4343 132.698 38.241C131.892 38.0477 131.248 37.9188 130.7 37.7899C130.185 37.6611 129.443 37.4033 128.638 37.0489C127.768 36.7268 127.123 36.308 126.576 35.8569C126.06 35.4703 125.577 34.8582 125.19 34.1172C124.803 33.3763 124.578 32.6031 124.578 31.6688C124.578 29.6713 125.383 28.1572 126.962 27.094C128.541 26.0309 130.475 25.5798 132.73 25.5798C135.244 25.5798 137.66 26.2564 139.981 27.5128C140.303 27.6417 140.303 27.835 140.174 28.125L139.046 29.9935C138.917 30.3157 138.724 30.3157 138.434 30.1224C136.5 29.1237 134.567 28.6082 132.601 28.6082C131.151 28.6082 130.023 28.8659 129.218 29.4136C128.348 29.9291 127.961 30.6701 127.961 31.6688C127.961 32.6675 128.412 33.4729 129.282 33.9239C130.217 34.375 131.538 34.7938 133.343 35.1804C134.213 35.3737 134.921 35.5025 135.469 35.6314C135.985 35.7603 136.662 36.018 137.467 36.3724C138.273 36.6946 138.917 37.1134 139.336 37.5C139.884 37.8544 140.271 38.3698 140.593 39.0464ZM117.231 35.5992H106.468V33.8595C106.468 32.1198 106.919 30.8634 107.918 29.9291C108.917 29.0592 110.174 28.6082 111.849 28.6082C113.428 28.6082 114.782 29.0592 115.781 29.9291C116.78 30.7989 117.231 32.1198 117.231 33.7951V35.5992ZM111.849 25.5798C109.4 25.5798 107.274 26.3208 105.598 27.7061C103.858 29.0914 103.02 31.1533 103.02 33.8917V40.2062C103.02 42.6546 103.89 44.5876 105.598 45.9729C107.338 47.3582 109.368 48.0348 111.785 48.0348C114.911 48.0348 117.617 47.0361 120.034 45.0387C120.292 44.8454 120.292 44.5876 120.099 44.3621L118.906 42.7835C118.777 42.5258 118.52 42.5258 118.23 42.6546C116.232 44.1688 114.105 44.9742 111.849 44.9742C110.27 44.9742 108.917 44.5876 107.918 43.7178C106.919 42.8479 106.404 41.7203 106.404 40.2062V38.4665H120.034C120.356 38.4665 120.485 38.2732 120.485 37.951V33.8917C120.485 31.1533 119.615 29.1881 117.972 27.7061C116.361 26.2242 114.298 25.5798 111.849 25.5798ZM82.1071 32.6675V20.9729H88.4873C93.0631 20.9729 95.3187 22.9059 95.3187 26.8041C95.3187 30.6701 93.0631 32.6353 88.4873 32.6353H82.1071V32.6675ZM91.0652 35.5992C93.5142 35.2126 95.4476 34.2139 96.8332 32.6675C98.2189 31.1533 98.8955 29.2203 98.8955 26.8363C98.8955 23.969 97.9611 21.7139 96.0921 20.1352C94.2231 18.5566 91.6452 17.719 88.3907 17.719H79.0136C78.6914 17.719 78.498 17.8479 78.498 18.17V47.0039C78.498 47.326 78.6269 47.4549 79.0136 47.4549H81.5915C81.9137 47.4549 82.0426 47.326 82.0426 47.0039V35.9214H87.1017L95.4154 47.1972C95.5443 47.3905 95.7376 47.4549 96.0277 47.4549H99.2822C99.4756 47.4549 99.6045 47.3905 99.6689 47.2616C99.7334 47.1327 99.6689 47.0039 99.6045 46.875L91.0652 35.5992Z" fill="#64BC47"></path><path d="M257.917 47.6163L248.218 33.3443L257.498 19.3301C257.627 19.2012 257.562 19.0079 257.369 19.0079H256.306C256.177 19.0079 256.048 19.0724 255.984 19.1368L247.348 32.2167L238.647 19.1368C238.583 19.0079 238.454 19.0079 238.389 19.0079H237.326C237.133 19.0079 237.068 19.1368 237.197 19.3301L246.574 33.3443L236.811 47.6163C236.682 47.7451 236.746 47.9384 236.939 47.9384H238.003C238.132 47.9384 238.261 47.874 238.261 47.8095L247.412 34.4075L256.435 47.8095C256.499 47.9384 256.628 47.9384 256.692 47.9384H257.756C258.046 47.9384 258.046 47.7451 257.917 47.6163ZM234.2 44.6201C234.265 44.749 234.265 44.8778 234.136 44.9423C231.558 47.2619 228.303 48.2606 225.113 48.2606C218.862 48.2606 215.35 44.3302 215.35 38.6923V28.1574C215.35 22.5195 218.926 18.5891 225.049 18.5891C228.11 18.5891 231.107 19.5878 233.62 21.5853C233.749 21.6497 233.749 21.843 233.685 21.9074L233.234 22.584C233.169 22.7128 233.04 22.7128 232.911 22.6484C230.656 20.8443 227.917 19.91 225.081 19.91C219.571 19.91 216.703 23.4216 216.703 28.2863V38.8533C216.703 43.6858 219.571 47.2297 225.146 47.2297C228.207 47.2297 231.139 46.1665 233.524 44.1046C233.653 43.9758 233.781 44.0402 233.846 44.1691L234.2 44.6201Z" fill="white"></path><circle cx="31" cy="31" r="13" fill="white"></circle><path d="M37.9277 39.5622C37.8632 39.6266 37.7988 39.6266 37.7343 39.6266C37.6054 39.6266 37.4121 39.5622 37.3476 39.4333L34.3509 34.2465C34.222 34.0532 34.2864 33.7954 34.4798 33.6343C34.6731 33.5055 34.9309 33.5699 35.092 33.7632L38.0888 38.9501C38.1855 39.1756 38.121 39.4333 37.9277 39.5622ZM32.0952 32.2168H31.483C31.2896 32.8934 30.6774 33.4088 29.9685 33.4088C29.0984 33.4088 28.3895 32.6679 28.3895 31.8302C28.3895 30.9604 29.1306 30.2516 29.9685 30.2516C30.7096 30.2516 31.2896 30.7026 31.483 31.3792H32.1597C32.7719 31.4436 34.6731 31.5081 35.8654 30.3805C36.6065 29.7039 36.9287 28.8019 36.9287 27.5132C36.9287 23.4539 34.4153 22.9384 31.8696 22.9384H26.8428V39.6589C26.8428 39.9166 26.6494 40.1099 26.3916 40.1099C26.1339 40.1099 25.9405 39.9166 25.9405 39.6589V21.9719H31.8374C33.4164 21.9719 37.7343 21.9719 37.7343 27.4165C37.7343 28.9307 37.2832 30.155 36.4132 30.9282C34.9309 32.3457 32.7397 32.2813 32.0952 32.2168ZM31.2896 16.5273C23.0404 16.5273 16.4023 23.164 16.4023 31.4114C16.4023 39.6589 23.0404 46.2955 31.2896 46.2955C39.5388 46.2955 46.1769 39.6589 46.1769 31.4114C46.1769 23.164 39.4422 16.5273 31.2896 16.5273Z" fill="#64BC47"></path><path d="M4.06017 31.4112C4.06017 46.4885 16.2729 58.6986 31.3535 58.6986C37.6049 58.6986 43.4373 56.6367 48.3675 52.803C48.5609 52.6741 48.5609 52.4164 48.432 52.1909C48.3031 51.9976 48.0453 51.9976 47.8197 52.1264C43.1151 55.8958 37.3793 57.8288 31.3535 57.8288C16.8207 57.8288 4.9302 46.0053 4.9302 31.4112C4.9302 27.964 5.6069 24.6457 6.86362 21.4562C6.73472 21.4562 6.05803 21.0696 6.05803 21.0696C4.70464 24.3557 4.06017 27.8351 4.06017 31.4112ZM53.5233 31.4112C53.5233 19.1367 43.5018 9.08508 31.1924 9.08508C18.9152 9.08508 8.86148 19.1044 8.86148 31.4112C8.86148 43.6857 18.883 53.7373 31.1924 53.7373C43.5662 53.6406 53.5233 43.6857 53.5233 31.4112ZM54.3933 31.4112C54.3933 44.1689 44.0174 54.5749 31.2246 54.5749C18.4641 54.5749 8.12033 44.1367 8.12033 31.4112C8.12033 18.6534 18.4963 8.24745 31.2891 8.24745C44.0496 8.24745 54.3933 18.589 54.3933 31.4112ZM49.4309 31.4112C49.4309 21.3918 41.2461 13.2732 31.2891 13.2732C21.2675 13.2732 13.1472 21.4562 13.1472 31.4112C13.1472 41.4305 21.332 49.5491 31.2891 49.5491C41.2461 49.5491 49.4309 41.3661 49.4309 31.4112ZM50.2687 31.4112C50.2687 41.9138 41.7617 50.3867 31.2891 50.3867C20.7842 50.3867 12.3094 41.8816 12.3094 31.4112C12.3094 20.9086 20.8164 12.4356 31.2891 12.4356C41.6973 12.339 50.2687 20.9086 50.2687 31.4112ZM46.4986 8.76291C46.3052 8.63404 46.0474 8.69848 45.8863 8.89178C45.7574 9.08508 45.8219 9.34281 46.0152 9.50389C53.2655 14.433 57.6479 22.5838 57.6479 31.3467C57.6479 36.7913 55.9723 41.9782 52.9433 46.4241C52.8144 46.6174 52.8788 46.8751 53.0722 47.0362C53.1366 47.1006 53.2011 47.1006 53.33 47.1006C53.4589 47.1006 53.5878 47.0362 53.6522 46.9073C56.8423 42.3326 58.5824 36.9524 58.5824 31.3145C58.518 22.3261 54.0067 13.8853 46.4986 8.76291ZM14.0817 11.3402C18.8508 7.21651 24.9732 4.96135 31.3535 4.96135C32.4169 4.96135 33.4158 5.02579 34.4792 5.15465C34.737 5.21909 34.9303 5.02579 34.9303 4.76805C34.9303 4.51032 34.8014 4.31702 34.5436 4.31702C33.4803 4.18816 32.4169 4.12372 31.3535 4.12372C24.8444 4.12372 18.4641 6.44332 13.5661 10.7603C13.3728 10.8892 13.3728 11.1469 13.5017 11.3725C13.5661 11.4369 13.695 11.5013 13.8239 11.5013C13.8883 11.5013 14.0172 11.4369 14.0817 11.3402ZM41.4395 6.05672C40.4406 5.67012 39.3772 5.31574 38.2493 4.99357C38.056 4.92914 37.7982 5.058 37.7338 5.31574C37.6693 5.50904 37.7982 5.76677 38.056 5.8312C39.1194 6.08893 40.1183 6.44332 41.1172 6.82992H41.2461C41.4395 6.82992 41.5684 6.70105 41.6328 6.57218C41.6973 6.37888 41.6328 6.12115 41.4395 6.05672ZM55.7145 13.0155C58.9046 17.2037 60.9669 22.1006 61.6114 27.2874C61.6114 27.4807 61.8048 27.674 61.9981 27.674H62.0626C62.3203 27.674 62.4492 27.4163 62.4492 27.223C61.7081 21.8428 59.5813 16.7848 56.2623 12.4678M55.5212 50.0646C49.6887 57.571 40.9239 61.8881 31.418 61.8881C30.5479 61.8881 28.969 61.7592 28.969 61.7592C28.969 61.7592 28.7756 62.629 28.7112 62.629C29.6457 62.6935 30.5157 62.7579 31.4502 62.7579C41.2139 62.7579 50.2365 58.312 56.2945 50.6123C56.4234 50.419 56.4234 50.1612 56.2301 50.0001C55.9401 49.8713 55.6501 49.9357 55.5212 50.0646ZM0.870036 31.4112C0.870036 30.6702 0.870036 29.9614 0.934483 29.2849C0.934483 29.0271 0.805589 28.8338 0.5478 28.8338C0.354459 28.8338 0.0966706 28.9627 0.0966706 29.2204C0 29.9614 0 30.6702 0 31.4112C0 43.4924 7.02473 54.6393 18.013 59.8262C18.0774 59.8262 18.1419 59.8906 18.2063 59.8906C18.3352 59.8906 18.5285 59.8262 18.593 59.6329C18.7219 59.4396 18.593 59.1819 18.3996 59.0208C7.76587 53.995 0.870036 43.1702 0.870036 31.4112ZM1.99786 21.5851H2.12675C2.3201 21.5851 2.44899 21.4562 2.51344 21.3274C6.76694 9.08508 18.3996 0.869848 31.3535 0.869848C36.8637 0.869848 42.3095 2.31959 47.0142 5.18687C47.2075 5.31574 47.4653 5.2513 47.6264 5.058C47.7553 4.8647 47.6908 4.60697 47.4975 4.44589C42.6317 1.51418 37.0571 0 31.3535 0C18.013 0 6.12247 8.44075 1.74007 21.0374C1.67562 21.2629 1.80452 21.5207 1.99786 21.5851ZM61.7725 39.4975C61.257 41.495 60.5158 43.4924 59.5813 45.3287C59.5169 45.4576 59.388 45.5865 59.1947 45.5865C59.1302 45.5865 59.0658 45.5865 59.0013 45.522C58.808 45.3932 58.6791 45.1354 58.808 44.9099C59.7425 43.1058 60.3869 41.205 60.9347 39.2076C60.9992 39.0143 61.1925 38.821 61.4503 38.8854C61.6436 39.0465 61.7725 39.2398 61.7725 39.4975Z" fill="white"></path><path d="M54.7151 9.3103C55.8429 9.3103 56.7129 10.1802 56.7129 11.3077C56.7129 12.4353 55.8429 13.3052 54.7151 13.3052C53.5873 13.3052 52.7172 12.4353 52.7172 11.3077C52.7494 10.1479 53.6517 9.3103 54.7151 9.3103ZM26.9706 59.697C28.0984 59.697 28.9685 60.5669 28.9685 61.6945C28.9685 62.822 28.0984 63.6919 26.9706 63.6919C25.8428 63.6919 24.9728 62.822 24.9728 61.6945C24.9728 60.5669 25.8428 59.697 26.9706 59.697ZM7.18536 17.5255C8.31318 17.5255 9.18322 18.3954 9.18322 19.523C9.18322 20.6505 8.31318 21.5204 7.18536 21.5204C6.05754 21.5204 5.1875 20.6505 5.1875 19.523C5.1875 18.3954 6.12198 17.5255 7.18536 17.5255Z" fill="#64BC47"></path></svg>